<svg width="126" height="128" viewBox="0 0 126 128" fill="none" xmlns="http://www.w3.org/2000/svg">
<path d="M15.6617 128H22.4561C26.7746 128 30.1142 124.793 30.1142 120.702V111.523C41.5151 112.297 52.8007 112.684 62.9346 112.684C73.0689 112.684 84.3542 112.353 95.8128 111.523V120.702C95.8128 124.793 99.0946 128 103.414 128H110.208C114.526 128 117.866 124.793 117.866 120.702V14.3205C117.866 7.1879 113.49 3.09633 105.717 2.21166C93.452 0.82937 77.7328 0.11058 62.9346 0.11058C48.2519 0.11058 32.5326 0.82937 20.2105 2.21166C12.3797 3.09633 8.06119 7.1879 8.06119 14.3205V120.702C8.06119 124.793 11.3432 128 15.6617 128ZM24.7593 74.92C20.9591 74.3119 19.0589 72.2663 19.0589 68.3404V19.2415C19.0589 14.8182 21.247 12.4406 25.623 11.9983C49.6338 9.56543 76.4085 9.56543 100.362 11.9983C104.795 12.4406 106.868 14.8182 106.868 19.2415V68.3404C106.868 72.2663 105.026 74.3119 101.168 74.92C77.2723 78.2928 48.4246 78.2928 24.7593 74.92ZM28.3293 99.5803C24.0683 99.5803 20.9015 96.4838 20.9015 92.4475C20.9015 88.3562 24.0683 85.3152 28.3293 85.3152C32.5901 85.3152 35.757 88.3562 35.757 92.4475C35.757 96.4838 32.5901 99.5803 28.3293 99.5803ZM50.3823 97.1474C47.3882 97.1474 45.3153 95.1567 45.3153 92.3371C45.3153 89.462 47.3882 87.5267 50.3823 87.5267H75.4297C78.366 87.5267 80.4391 89.462 80.4391 92.3371C80.4391 95.1567 78.366 97.1474 75.4297 97.1474H50.3823ZM97.5404 99.5803C93.337 99.5803 90.1702 96.4838 90.1702 92.4475C90.1702 88.3562 93.337 85.3152 97.5404 85.3152C101.801 85.3152 105.026 88.3562 105.026 92.4475C105.026 96.4838 101.801 99.5803 97.5404 99.5803ZM8.06119 51.8636V20.5685H5.47008C2.24561 20.5685 0 22.5037 0 25.4342V47.0532C0 49.9836 2.24561 51.8636 5.47008 51.8636H8.06119ZM117.866 51.8636H120.399C123.624 51.8636 125.87 49.9836 125.87 47.0532V25.4342C125.87 22.5037 123.624 20.5685 120.399 20.5685H117.866V51.8636Z" fill="#6E6D6C"/>
</svg>
