<?xml version="1.0" encoding="UTF-8"?>
<!DOCTYPE svg PUBLIC "-//W3C//DTD SVG 1.1//EN" "http://www.w3.org/Graphics/SVG/1.1/DTD/svg11.dtd">
<svg xmlns="http://www.w3.org/2000/svg" version="1.1" width="512px" height="564px" style="shape-rendering:geometricPrecision; text-rendering:geometricPrecision; image-rendering:optimizeQuality; fill-rule:evenodd; clip-rule:evenodd" xmlns:xlink="http://www.w3.org/1999/xlink">
<g><path style="opacity:1" fill="#fefefe" d="M 200.5,26.5 C 267.626,24.9815 334.626,27.1481 401.5,33C 417.612,33.1102 432.612,37.1102 446.5,45C 457.256,54.3476 462.756,66.1809 463,80.5C 463.5,89.8274 463.666,99.1607 463.5,108.5C 470.257,108.123 476.924,108.623 483.5,110C 487,112.167 489.833,115 492,118.5C 493.146,135.77 493.646,153.103 493.5,170.5C 493.646,187.897 493.146,205.23 492,222.5C 489.778,226.388 486.612,229.221 482.5,231C 476.258,232.37 469.925,232.87 463.5,232.5C 463.667,324.834 463.5,417.167 463,509.5C 461.425,525.076 452.925,534.242 437.5,537C 426.5,537.667 415.5,537.667 404.5,537C 390.454,534.621 381.954,526.454 379,512.5C 378.5,498.837 378.333,485.171 378.5,471.5C 294.168,476.816 209.835,476.816 125.5,471.5C 125.896,486.544 125.396,501.544 124,516.5C 120.091,528.408 111.924,535.242 99.5,537C 88.5,537.667 77.5,537.667 66.5,537C 52,534.5 43.5,526 41,511.5C 40.5,418.501 40.3333,325.501 40.5,232.5C 35.1563,232.666 29.8229,232.499 24.5,232C 16.3333,230.5 11.5,225.667 10,217.5C 9.33333,186.5 9.33333,155.5 10,124.5C 10.9409,116.226 15.4409,111.06 23.5,109C 29.1569,108.501 34.8236,108.334 40.5,108.5C 39.9363,94.396 40.7696,80.396 43,66.5C 47.8073,52.3593 57.3073,42.8593 71.5,38C 78.3787,36.0242 85.3787,34.6909 92.5,34C 128.588,30.4956 164.588,27.9956 200.5,26.5 Z M 233.5,65.5 C 280.242,65.4634 326.908,67.2968 373.5,71C 383.935,71.6099 394.268,72.9433 404.5,75C 414.531,79.0497 420.031,86.5497 421,97.5C 421.667,166.5 421.667,235.5 421,304.5C 419.582,316.171 413.082,323.005 401.5,325C 303.881,338.603 206.215,338.936 108.5,326C 94.8814,325.369 86.3814,318.536 83,305.5C 82.3333,235.5 82.3333,165.5 83,95.5C 85.9879,80.5745 95.1546,73.0745 110.5,73C 151.57,69.0256 192.57,66.5256 233.5,65.5 Z M 112.5,366.5 C 136.156,365.657 147.656,376.99 147,400.5C 141.553,418.81 129.386,426.31 110.5,423C 92.0805,415.658 85.9138,402.491 92,383.5C 96.2615,374.634 103.095,368.967 112.5,366.5 Z M 379.5,366.5 C 399.762,365.605 411.428,375.105 414.5,395C 412.667,412.833 402.834,422.666 385,424.5C 364.486,421.309 355.153,409.309 357,388.5C 360.455,376.876 367.955,369.543 379.5,366.5 Z M 197.5,375.5 C 233.502,375.333 269.502,375.5 305.5,376C 316.56,379.942 321.06,387.776 319,399.5C 316.723,407.444 311.556,412.278 303.5,414C 268.833,414.667 234.167,414.667 199.5,414C 189.249,411.579 183.916,405.079 183.5,394.5C 184.436,385.254 189.102,378.921 197.5,375.5 Z"/></g>
</svg>
